<?xml version="1.0" encoding="UTF-8"?><svg xmlns="http://www.w3.org/2000/svg" xmlns:xlink="http://www.w3.org/1999/xlink" height="804.0" preserveAspectRatio="xMidYMid meet" version="1.0" viewBox="0.1 -0.3 517.2 804.0" width="517.2" zoomAndPan="magnify"><g id="change1_1"><path clip-rule="evenodd" d="M382,148.4c0,0.1,0,0.1,0,0.2c-3.1,18.7-4.5,39.8-10.2,56.9 c-7.5,22.3-18,42.4-30.5,61c0-2.5-0.4-5.1-1.3-8c0.8-5.5,2.7-11.1,4.7-16.3c3.4-8.8,3.5-25.8,3.3-35.4c-0.6-29-15.2-54.1-27.8-79.2 c-6.7-13.3-17.6-23.5-26.5-34.8c-0.2-0.3-1.5-2.1-2.5-3.2c-0.6-0.7-1.3-1.3-1.6-1.5c-1-0.5-1.8-0.2-2.3,0.2c0,0-1,0.7-0.7,2 c0.1,0.3,0.5,1.9,0.5,2c0.4,1.8,0.3,3.9,0,5.7c-1.5,12.3-1.2,24-0.6,36.4c0.8,17.6,6.3,37.9,14.6,53.6c6.5,12.4,12.4,25.5,18.4,38.3 c4.2,9,13,22.1,16.5,32.7c-0.4,3.6-0.4,7.2,0.3,10.6c0.1,0.5,0.4,0.9,0.7,1.2c-0.2,1.1-0.5,2.1-0.8,3.2c-10,14.1-21,27.4-32.6,40.5 c-17.5,19.8-36.1,38.9-54.1,59c0-1.3,0-2.5,0.1-3.8c0.5-5,0.9-9.7,1.1-14.5l0-0.1c0.2-4.2,0.3-8.4,0.1-12.8 c-0.9-29.7-7.2-58.7-17.8-86.3c-8.9-22.9-26.2-41.5-45.4-56.7c-6.4-5.1-13.4-9.9-21-12.7c-3-1.1-6.3-1.4-9-2.7 c-0.9-0.4-1.6-0.1-1.8,0.1c-0.6,0.3-1,0.9-1,1.7c0,0.1,0,0.8,0.7,1.5c0.9,1,4.8,4.8,8.1,9.5c2.1,3,3.9,6.4,4.4,9.6 c2.6,16.2,4.6,33.1,10.5,48.3c0.7,1.7,1,4,1.3,6.2c0.4,2.6,0.9,5.2,1.9,7.1c3.2,6.3,5.5,13.4,8.4,19.8c5.8,12.8,15.7,19.9,24.5,30.5 c2.4,2.8,7.8,8.1,10.3,11c4.4,5.3,8.3,8,11.7,10.4c4.6,3.3,8.1,6.2,10.4,15.6c-0.2,4.6-0.6,9.3-1.1,14.1c-0.1,0.7-0.1,1.5-0.1,2.3 c-1.2-2.5-2.6-4.9-3.5-6.7c-13.5-26.5-26.9-31.5-53.2-41.4c-3.1-1.2-7.8-1.8-11.1-2.1c-0.6-0.1-1.8-0.6-1.8-0.6 c-0.9-0.4-2,0-2.5,0.9c-0.5,0.9-0.2,2,0.7,2.5c0,0,3.7,2.2,4.9,3.9c3.3,4.7,5.7,10.7,8.4,16.4c2.9,6.1,6.1,11.9,10.8,15.8 c5.3,4.5,12.4,4.3,19.1,3.5c3.1-0.4,6.1-0.9,8.7-1c2.3-0.1,4.3,0,5.8,1c4.4,2.7,8.2,4.1,10.9,11.3c0.2,0.4,0.2,1.7,0.4,2.9 c0.1,0.7,0.3,1.4,0.5,1.9c-9.6,10.9-19,22.1-27.8,33.9c-22.1,29.4-41.8,70.6-56.2,110.9c-0.5-7.2,1.5-14.9,2.4-22 c4.4-36,8.7-65.9-9.1-99.6c-9.3-17.6-27.8-28.6-42.7-39.8c-5-3.7-11.2-8-15.5-10.1c-1.4-0.7-2.4-1.1-3.8-2.4 c-0.3-0.3-2.1-1.4-3.5-1.9c-0.8-0.3-1.5-0.4-1.9-0.4c-0.4-0.1-0.9-0.2-1.3,0c-1,0.4-1.5,1.5-1.2,2.5c0.9,2.7,3.9,5.4,6.7,8.5 c2.3,2.6,4.5,5.4,4.6,9c0.1,4.9,2.1,10.3,3,15.1c4.1,23,1.7,46.4,13.5,67.7c5.3,9.6,14.2,17.4,22,24.9c12.5,12,18,30.1,21.2,46.2 c0.4,2.1,0.9,11.5,0.8,16.2c-5.5,16.6-10,32.8-13.3,47.6c-5.1,23-4.5,46-7.7,68.9c-0.2,1.1-0.3,2.3-0.4,3.4 c-0.2-1.1-0.4-2.2-0.5-3.3c0-0.3-0.1-0.6-0.1-0.9c0.4-0.4,0.6-0.9,0.5-1.5c-0.3-3-1-5.8-1.9-8.3c-1.9-10.4-4.9-21-8.4-30.7 c-6.1-17.1-15.6-32.6-26.7-46.8c-3.8-4.8-6.3-10.9-10.1-15.6c-10-12.8-20.9-22.4-33.7-32c-6.2-4.6-14.2-7.9-22-11.3 c-7.4-3.2-14.6-6.5-19.5-11.2c-2.4-2.3-8.3-5.2-8.3-5.2c-0.8-0.4-1.9-0.2-2.4,0.6c-0.5,0.8-0.4,1.8,0.2,2.5c0,0,1.6,1.6,2.4,2.3 c7.5,7.2,11.1,16.4,14.5,25.9c8.1,22.7,17.7,44.7,33.8,63c8.6,9.8,18.2,19.9,30,25.5c2.2,1,4.8,1.5,7.4,2.1c2.2,0.5,4.4,1.1,6.1,2.3 c7.2,5.3,15.5,10,22.3,15.8c4.5,3.9,8.4,8.3,10.6,13.8c0.6,3.4,1.1,6.7,1.4,10c0.3,2.8,1,5.6,1.6,8.3c-0.5-0.4-1-0.8-1.4-1.2 c-0.6-0.6-1.2-1.1-1.8-1.5c-2.5-4.3-5.1-8.5-6.8-10.1c-7.8-7.5-18.1-11.4-28.9-13.8c-10.5-2.4-21.5-3.4-31.3-5.4 c-12.2-2.5-28.1-1.9-41.5-0.2c-4.2-0.4-8.4-0.4-12.1-0.1c-1.9,0.2-5.5,1.9-5.5,1.9c-0.8,0.4-1.2,1.3-1,2.1c0.2,0.9,1,1.5,1.8,1.5 c0,0,6.7,0.1,10-0.5c2.2-0.4,4.5-0.8,6.9-1.1c4.8,0.5,9.6,1.7,13.5,3.5c7.9,3.7,15,9.8,22.4,15.2c7.8,5.7,15.9,10.6,25.6,11.8 c8.8,1.1,17.6-2,25.8-3.9c6.6-1.5,12.8-2.2,18.2,1.6c1.2,2,2.3,4.1,3.4,5.7c1.6,2.6,3,4.5,3.8,5c0.1,0.1,0.2,0.1,0.4,0.2 c-1.8,40,4,96.8,15.9,125.9c0.2,0.6,0.7,1,1.3,1.1c0.1,0.2,0.2,0.5,0.3,0.7c0.4,1,1.5,1.5,2.5,1.1c1-0.4,1.5-1.5,1.1-2.5 c-6.1-14.8-10.5-36.9-13.2-60.3c7.5-16.5,18.1-20.8,30.9-27.4c5.4-2.8,12.6-5,19.2-8.6c14.4-8,27.3-20.9,39.1-32.4 c11.3-11,20.5-23.3,26.9-37.7c2.6-5.8,5-12.1,8.5-17.4c0.8-1.2,1.7-3.8,1.7-3.8c0.3-0.9,0-1.8-0.8-2.3c-0.8-0.5-1.8-0.3-2.4,0.3 c0,0-0.7,0.7-1.1,1c-5.4,3.7-10,8.5-15.9,11.4c-13.1,6.4-27.1,12.3-40.8,17.6c-20,7.7-32.9,18.4-45,38.5c-3.8,6.4-5.3,17.8-7.3,27.5 c-1.2,6-2.6,11.3-5.1,14.1c-3.2,3.6-4.5,5.6-8.1,10.8c-0.2,0.3-0.4,0.6-0.6,0.9c-2.7-27.8-2.8-56.5,0-76.1 c3.3-22.8,2.6-45.7,7.7-68.6c1.3-5.7,2.7-11.7,4.4-17.8c0.2-0.1,0.5-0.3,0.7-0.5c8.6-10.9,17.6-11.7,28.3-11.1 c7.6,0.4,16.1,1.5,25.7,0.5c15.7-1.6,32.5-9.9,45.3-18.5c14.2-9.5,23.7-23.9,35-36.3c3.5-3.9,8.5-6.8,13.2-9.2 c1.3-0.7,2.8-1.3,4.2-1.8c0.9-0.1,2.3-0.2,3.1-0.5c0.9-0.3,1.4-0.9,1.6-1.3c0.3-0.6,0.2-1.1,0-1.5c-0.2-0.5-0.5-1-1.3-1.2 c-0.2-0.1-0.6-0.1-1.1-0.1c-0.6,0.1-1.7,0.4-1.7,0.4c-0.4,0.1-0.8,0.2-1.3,0.3c-0.3,0-0.6,0.1-0.7,0.1c-11.1,1-22.4,3.7-33.4,5.8 c-39,7.5-69.8,19.7-99.9,46c-1.7,1.5-8.4,8.5-14.2,15.5c1.1-3.6,2.2-7.2,3.3-10.9c0,0,0,0,0.1,0c1.1-0.1,1.8-1.1,1.7-2.1 c-0.1-0.8-0.1-1.7-0.2-2.7c10.9-33.3,25.8-68.2,43-97.3c0.6-0.6,1.2-1.1,1.8-1.6c0.2-0.1,0.4-0.3,0.6-0.5l0.1-0.1 c1.5-1.3,3-2.5,4.4-3.8c1-0.9,2.1-1.9,3.1-2.9c6.2-3.7,12.9-3.7,20.1-2.7c7.3,0.9,15.2,2.7,23.6,3c7.7,0.2,19.1-2.8,26.4-5 c7.7-2.3,17.3-6.7,23.9-11.5c4.2-3,12.3-14.7,22.3-23.6c7.9-7.1,17.6-12.1,18.8-12.9c1.1-0.7,1-1.7,1-1.8c0-0.6-0.3-1.1-0.9-1.5 c-0.2-0.1-0.7-0.4-1.5-0.2c-3.2,0.8-7.1,1-10.4,1.4c-11.2,1.3-26.8,0.8-40.7,2.2c-17.1,1.7-27.6,2.8-40.2,9.6 c-15.1,8.1-29.9,26-44.5,39.9c-0.2,0.1-0.3,0.2-0.4,0.3c3.4-5.2,6.8-10.2,10.3-14.8c8.2-10.9,16.9-21.4,25.8-31.6 c0.3-0.1,0.6-0.2,0.9-0.4c0.6-0.4,0.9-1,0.9-1.6c19.8-22.5,40.6-43.6,59.9-65.5c4.6-5.2,9.2-10.5,13.6-15.9c0.2-0.1,0.4-0.3,0.6-0.4 c0.3-0.2,0.6-0.4,0.9-0.6c0.2,0,0.3,0,0.5,0c0.6-0.1,1.1-0.4,1.4-0.9c0.1,0,0.2,0,0.2-0.1c9.4-2.2,17.5-8,27.2-10.2 c7-1.6,14.7-1.7,22.4-2c8-0.3,15.9-0.7,23.2-3c16.8-5.3,33-8.9,49.3-16.5c13.4-6.3,25.4-15.1,36-24.9c3.7-3.4,7.4-8.3,11.5-10.8 c2.9-1.8,12.1-10.8,20.9-15.1c1-0.5,1.3-1.6,0.9-2.6c-0.3-0.7-1.1-1.1-1.8-1.1c-0.2,0-0.3,0-0.5,0c-39.6,3.4-89.5,13.8-122.4,38.2 c-11.5,8.6-22.4,17.6-34.7,25.1c-3.4,2.1-17.6,9.5-28.3,15.7c20.1-25.5,37.2-53,48-85.2c1-1.6,2.2-3.2,3.4-4.7 c3.5-4.4,7.4-8.5,9.7-12.7c0-0.1,0.1-0.2,0.1-0.2c0.8-1.1,2.3-2.7,3.9-4c1-0.9,2-1.6,2.8-1.7c16.9-2.5,32-0.3,49-8.9 c7.2-3.6,16.3-15.7,24.7-24.1c2.6-2.6,5.1-4.9,7.5-6.3c1.9-1.1,3.7-1.8,5.3-1.2c1,0.3,2.1-0.2,2.4-1.2c0.3-0.9-0.2-2-1-2.4 c-0.3-0.2-0.6-0.4-1-0.4c-31.1-3.7-61.6,5.2-81,28.3c-1.5,1.8-8.2,8.3-10.5,13.2c-0.1,0.2-0.1,0.3-0.2,0.5c-1.8,2-3.8,4-5.2,6.2 c-0.2,0.2-0.3,0.5-0.5,0.7c-0.1,0.1-0.2,0.3-0.2,0.5c-1.7,2.8-4.1,5.7-6.6,8.6c3.5-15.1,5-32.1,7.6-47.5c0.1-0.4,0-0.8-0.2-1.2 l0-0.1c0.1-0.5,0.2-0.9,0.4-1.1c12.1-12.1,23.1-37.3,19.8-57.1c-1.3-7.8-3.9-14.5-5.8-21.7c-2.2-8.7-8.3-16-11.6-24.2 c-2.7-6.7-4.9-13.5-7.4-19.9c-1.9-4.7-2.5-14.7-1.3-19.7c0.3-1.3,0.4-4.2,0.4-4.2c0-1-0.7-1.8-1.7-1.9c-1-0.1-1.9,0.5-2.1,1.5 c0,0-0.6,2.4-1,3.6c-1.8,5.4-4.1,11.1-6.4,16.8c-5,12.5-12,29.4-14.3,43.5c-1.7,10.7,3.5,23.5,5.4,32.9c1.9,9.3,8.6,25.6,16.6,39.2 C379.8,139.9,381.3,144,382,148.4L382,148.4z M258.8,619.9c-2.2,4.2-4,8.7-6,13c-6.2,14-15.1,25.9-26.1,36.5 c-11.6,11.3-24.2,23.9-38.3,31.8c-6.5,3.6-13.7,5.8-19.1,8.5c-5.4,2.8-10.4,5.2-14.9,8.2c1-2.8,1.9-6.1,2.6-9.7 c1.9-9.3,3.2-20.2,6.8-26.3c11.5-19.2,23.9-29.4,43.1-36.9c13.8-5.3,27.9-11.3,41.1-17.8C252,625.3,255.4,622.6,258.8,619.9 L258.8,619.9z M121.2,657.7c-1.2-1.8-2.2-3.3-3.1-4.1c-7.3-7-16.9-10.5-27-12.8c-10.4-2.4-21.4-3.4-31.2-5.3 c-8.5-1.7-18.7-1.9-28.6-1.3c1.1,0.4,2.1,0.8,3.1,1.3c8.1,3.8,15.4,10,23,15.6c7.2,5.3,14.8,10,23.8,11.1c8.4,1,16.7-2.1,24.5-3.8 C111.1,657,116.4,656.4,121.2,657.7L121.2,657.7z M12.8,502.9c3.6,5.7,6,12.1,8.3,18.6c7.9,22.3,17.3,43.9,33.1,61.7 c8.3,9.4,17.5,19.2,28.8,24.6c1.9,0.9,4.3,1.3,6.6,1.9c2.7,0.6,5.4,1.4,7.5,3c7.2,5.4,15.7,10.1,22.5,15.9c2.1,1.8,4,3.6,5.7,5.6 c-1.7-6.6-3.7-13.2-5.9-19.4c-6-16.7-15.2-31.8-26.1-45.8c-3.8-4.8-6.3-10.9-10.1-15.6c-9.8-12.5-20.4-21.9-33-31.3 c-6-4.4-13.7-7.6-21.2-10.8C23.2,508.8,17.5,506.2,12.8,502.9L12.8,502.9z M292.4,495.4c-7.5,1.2-15.1,3-22.4,4.4 c-38.3,7.4-68.5,19.3-98.1,45.2c-1.5,1.4-7.6,7.7-13,14.2c5.1-2.9,10.4-3.8,16.1-3.9c8.9-0.1,18.9,1.9,30.8,0.7 c15.1-1.5,31.2-9.6,43.6-17.9c13.9-9.4,23.2-23.6,34.3-35.7C286.1,499.7,289.1,497.4,292.4,495.4L292.4,495.4z M92.1,356.2 c0.2,0.2,0.4,0.4,0.6,0.6c2.9,3.2,5.5,7,5.6,11.5c0.1,4.7,2.1,9.9,2.9,14.5c4,22.6,1.5,45.6,13.1,66.5c5.1,9.2,13.7,16.7,21.3,24 c11.3,10.8,17.2,26.4,20.8,41.3c0.6-4.2,1.3-8.3,1.8-12.3c4.3-35.2,8.7-64.4-8.7-97.4c-9-17.1-27.1-27.6-41.6-38.5 c-4.8-3.6-10.7-7.7-14.8-9.7C92.7,356.5,92.4,356.3,92.1,356.2L92.1,356.2z M338.1,384.4c-0.5,0.1-1,0.1-1.5,0.2 c-11.2,1.3-26.8,0.8-40.7,2.2c-16.5,1.7-26.6,2.6-38.8,9.2c-12.7,6.9-25.2,20.7-37.5,33.2c2.7-0.5,5.5-0.6,8.4-0.5 c8.8,0.4,18.3,3.1,28.7,3.5c7.4,0.2,18.2-2.8,25.2-4.8c7.3-2.2,16.5-6.3,22.7-10.9c4.1-3,12.1-14.6,22-23.4 C330.3,389.7,334.5,386.7,338.1,384.4L338.1,384.4z M182.3,325.7c0,0,0.1,0.1,0.1,0.1c3.4,4.9,5.9,11,8.7,16.9 c2.6,5.6,5.5,10.9,9.8,14.5c2.6,2.2,5.7,2.9,9,3c3.6,0.1,7.4-0.4,10.9-0.9c5.3-0.7,10.1-1,13.3,1c0.7,0.5,1.4,0.9,2.1,1.3 c-12.2-21.3-25-25.9-48.5-34.8C186.1,326.4,184.2,326,182.3,325.7L182.3,325.7z M87.2,350.1c0,0.1,0,0.1,0,0.2c0,0.1,0,0.1,0,0.2 C87.3,350.4,87.3,350.3,87.2,350.1L87.2,350.1z M87.2,350.1C87.2,350.1,87.2,350.1,87.2,350.1C87.2,350.1,87.2,350.1,87.2,350.1 L87.2,350.1L87.2,350.1z M162.7,189.3c3.6,4.2,8.1,10.5,9,16.3c2.5,15.9,4.5,32.6,10.3,47.5c0.7,1.9,1.1,4.4,1.5,7 c0.4,2.2,0.7,4.4,1.5,6c3.2,6.3,5.5,13.5,8.5,20c5.6,12.5,15.4,19.3,23.9,29.7c2.4,2.8,7.8,8.1,10.3,11c4.1,4.9,7.8,7.4,11,9.7 c3.2,2.3,6,4.5,8.3,8.4c0-0.8,0-1.6-0.1-2.4c-0.9-29.2-7.1-57.8-17.6-85c-8.6-22.3-25.5-40.3-44.2-55.1c-6.1-4.8-12.7-9.4-20-12.1 C164.4,189.8,163.6,189.5,162.7,189.3L162.7,189.3z M507,219.2c-37.5,4-82.4,14.3-112.7,36.8c-11.6,8.6-22.6,17.7-35,25.3 c-1.9,1.2-7.1,4-13.2,7.3c1.8-0.7,3.7-1.3,5.6-1.7c7.3-1.7,15.2-1.8,23.1-2.1c7.6-0.3,15.2-0.7,22.1-2.8 c16.7-5.2,32.7-8.8,48.8-16.4c13-6.1,24.7-14.7,35.1-24.2c3.9-3.6,7.8-8.6,12.1-11.2C495.1,228.9,500.7,223.7,507,219.2L507,219.2z M291.2,95.8c0,0.9-0.1,1.8-0.2,2.6c-1.5,12.1-1.1,23.6-0.6,35.8c0.7,17.1,6.1,36.8,14.1,52c6.6,12.5,12.4,25.6,18.5,38.4 c3.5,7.5,10.2,17.9,14.4,27.3c1-3.8,2.3-7.5,3.6-11.1c3.2-8.5,3.2-24.8,3.1-34c-0.6-28.4-15-52.9-27.4-77.6 C310.2,116.5,299.8,106.6,291.2,95.8L291.2,95.8z M474.5,143.7c-26.6-1-52,7.8-68.7,27.7c-1.1,1.3-5.2,5.3-8,9.2c0,0,0,0,0,0.1 c0,0.1,0.1,0.3,0.1,0.5c15.9-2.1,30.3-0.2,46.4-8.3c3.1-1.6,6.6-5,10.3-8.9c5.8-6.2,11.9-13.7,17.5-18.4 C472.9,144.9,473.7,144.3,474.5,143.7L474.5,143.7z M377.1,16.1c-0.9,2.4-1.9,4.7-2.8,7.1c-4.9,12.2-11.8,28.8-14.1,42.7 c-1.6,10.3,3.6,22.6,5.4,31.5s8.3,24.8,16.1,38c1.4,2.3,2.8,6,3.7,10.1c11.3-11.6,21.3-34.9,18.3-53.3c-1.3-7.7-3.9-14.3-5.7-21.4 c-2.1-8.5-8.2-15.7-11.4-23.7c-2.7-6.7-4.9-13.5-7.4-19.9C378,24.6,377.3,20.4,377.1,16.1L377.1,16.1z" fill="inherit" fill-rule="evenodd"/></g></svg>